<?xml version="1.0" encoding="UTF-8"?>
<svg version="1.1" xmlns="http://www.w3.org/2000/svg" width="300" height="88">
<path d="M0 0 C5.21076392 0.02277263 10.42070907 0.00925266 15.63144493 -0.01379395 C42.79207522 -0.11507115 69.50297961 0.93889164 96.3215332 5.52148438 C95.9915332 6.84148438 95.6615332 8.16148438 95.3215332 9.52148438 C94.53206299 9.43584229 93.74259277 9.3502002 92.92919922 9.26196289 C89.24791896 8.86508031 85.56599172 8.47452265 81.8840332 8.08398438 C80.64331055 7.94927734 79.40258789 7.81457031 78.12426758 7.67578125 C62.27239577 6.00501841 46.50816753 5.31262557 30.5715332 5.33398438 C29.3052861 5.33489075 29.3052861 5.33489075 28.01345825 5.33581543 C-7.05705865 5.40332761 -44.17282665 7.35293766 -77.6784668 18.52148438 C-72.7284668 19.51148438 -72.7284668 19.51148438 -67.6784668 20.52148438 C-67.6784668 24.81148437 -67.6784668 29.10148437 -67.6784668 33.52148438 C-61.4084668 33.19148438 -55.1384668 32.86148438 -48.6784668 32.52148438 C-48.3484668 30.54148437 -48.0184668 28.56148437 -47.6784668 26.52148438 C-45.74192693 24.58494451 -42.10100025 25.35765363 -39.4597168 25.35351562 C-38.36185852 25.34852303 -38.36185852 25.34852303 -37.24182129 25.34342957 C-35.68490224 25.33835302 -34.12797224 25.33602146 -32.57104492 25.33618164 C-30.21603679 25.33401888 -27.86151543 25.3159382 -25.5065918 25.296875 C-14.47270083 25.25367255 -5.56046225 25.34029656 3.3215332 32.52148438 C4.2496582 31.71710937 5.1777832 30.91273437 6.1340332 30.08398438 C10.71539096 26.11347432 15.31473776 26.32142428 21.14575195 26.20507812 C22.00715286 26.18429703 22.86855377 26.16351593 23.75605774 26.1421051 C26.50696864 26.07673529 29.25797476 26.01778306 32.0090332 25.95898438 C33.87427741 25.9157872 35.73951201 25.87217252 37.60473633 25.828125 C42.17690444 25.72106675 46.7491683 25.61976383 51.3215332 25.52148438 C52.63691647 29.67919932 51.66586388 32.40941407 50.3215332 36.52148438 C47.3515332 37.01648437 47.3515332 37.01648437 44.3215332 37.52148438 C45.3115332 38.20210937 46.3015332 38.88273437 47.3215332 39.58398438 C50.02748928 41.8474974 50.28610469 42.3230847 50.9465332 46.02148438 C50.22827739 50.04371693 49.2304523 51.69336859 46.3215332 54.52148438 C44.0715332 55.83398438 44.0715332 55.83398438 42.3215332 56.52148438 C42.9815332 56.85148437 43.6415332 57.18148437 44.3215332 57.52148438 C44.3215332 59.17148437 44.3215332 60.82148437 44.3215332 62.52148438 C44.9815332 62.52148438 45.6415332 62.52148438 46.3215332 62.52148438 C46.6515332 60.87148438 46.9815332 59.22148438 47.3215332 57.52148438 C48.6415332 57.19148438 49.9615332 56.86148438 51.3215332 56.52148438 C51.43110352 55.69648437 51.54067383 54.87148438 51.65356445 54.02148438 C52.92076207 44.79051636 54.54030885 35.66510274 56.3215332 26.52148438 C58.96704376 26.32761945 61.61271103 26.1411017 64.2590332 25.95898438 C65.39115234 25.87487305 65.39115234 25.87487305 66.54614258 25.7890625 C68.46899278 25.6597228 70.39542868 25.58631525 72.3215332 25.52148438 C72.6515332 25.85148437 72.9815332 26.18148438 73.3215332 26.52148438 C73.24631802 36.5815156 71.06627273 46.64560023 69.3215332 56.52148438 C70.6415332 56.19148438 71.9615332 55.86148438 73.3215332 55.52148438 C74.9715332 45.95148437 76.6215332 36.38148437 78.3215332 26.52148438 C84.35427122 26.45255339 90.38563875 26.3928372 96.41845703 26.35668945 C98.46993647 26.34161815 100.52138376 26.32115756 102.57275391 26.29516602 C105.52425068 26.25871013 108.47532083 26.24174131 111.42700195 26.22851562 C112.79915108 26.20528984 112.79915108 26.20528984 114.19902039 26.18159485 C119.10211607 26.18030375 122.31451911 26.3726608 126.3215332 29.52148438 C126.9196582 29.97523437 127.5177832 30.42898437 128.1340332 30.89648438 C129.82774325 33.21419286 129.66432606 34.71058299 129.3215332 37.52148438 C128.3215332 39.83398438 128.3215332 39.83398438 127.3215332 41.52148438 C127.9815332 42.51148438 128.6415332 43.50148437 129.3215332 44.52148438 C129.24457007 48.75445679 129.04609732 50.79692026 126.0090332 53.83398438 C123.81421323 55.21212715 121.68775127 56.4698319 119.3215332 57.52148438 C121.3015332 57.52148438 123.2815332 57.52148438 125.3215332 57.52148438 C126.66925016 59.74125349 127.36552046 61.02296213 127.1340332 63.64648438 C126.3215332 65.52148437 126.3215332 65.52148437 123.3215332 67.52148438 C121.05200195 67.46289062 121.05200195 67.46289062 118.5090332 67.08398438 C114.50475439 66.5768923 111.30204874 66.76329094 107.3215332 67.52148438 C105.98369927 67.20669992 104.64949611 66.87560782 103.3215332 66.52148438 C102.39727539 66.76898438 102.39727539 66.76898438 101.4543457 67.02148438 C99.13432661 67.56537163 97.65723243 67.41076758 95.3215332 67.02148438 C90.41866157 66.36993997 85.82101632 66.80836485 80.9230957 67.36523438 C78.3215332 67.52148438 78.3215332 67.52148438 75.3215332 66.52148438 C73.92713656 66.45483062 72.52983446 66.43610239 71.1340332 66.45898438 C69.8759082 66.47960937 68.6177832 66.50023438 67.3215332 66.52148438 C67.3215332 63.55148438 67.3215332 60.58148438 67.3215332 57.52148438 C66.3315332 57.85148437 65.3415332 58.18148437 64.3215332 58.52148438 C64.6515332 61.16148438 64.9815332 63.80148438 65.3215332 66.52148438 C64.32895508 66.50988281 63.33637695 66.49828125 62.3137207 66.48632812 C54.28866373 66.42371002 46.40712873 66.63082732 38.4074707 67.40039062 C35.22436708 67.52529722 32.43627085 67.15285011 29.3215332 66.52148438 C29.3215332 63.55148438 29.3215332 60.58148438 29.3215332 57.52148438 C28.6615332 57.52148438 28.0015332 57.52148438 27.3215332 57.52148438 C27.6515332 58.51148438 27.9815332 59.50148437 28.3215332 60.52148438 C27.4465332 63.64648438 27.4465332 63.64648438 25.3215332 66.52148438 C20.805912 67.92994845 16.83523237 67.68105465 12.3215332 66.52148438 C11.6615332 66.68648438 11.0015332 66.85148437 10.3215332 67.02148438 C8.3215332 67.52148438 8.3215332 67.52148438 6.5715332 67.02148438 C4.16109289 66.48583097 2.67754059 66.69932232 0.2590332 67.08398438 C-3.6784668 67.52148438 -3.6784668 67.52148438 -6.6784668 65.52148438 C-6.9284668 62.45898437 -6.9284668 62.45898437 -6.6784668 59.52148438 C-6.3484668 59.19148438 -6.0184668 58.86148438 -5.6784668 58.52148438 C-6.6684668 58.52148438 -7.6584668 58.52148438 -8.6784668 58.52148438 C-8.6784668 61.16148438 -8.6784668 63.80148438 -8.6784668 66.52148438 C-10.12479492 66.50408203 -10.12479492 66.50408203 -11.6003418 66.48632812 C-12.86362305 66.47730469 -14.1269043 66.46828125 -15.4284668 66.45898438 C-17.30791992 66.44158203 -17.30791992 66.44158203 -19.2253418 66.42382812 C-22.50897626 66.39284737 -22.50897626 66.39284737 -24.9440918 67.08789062 C-26.6784668 67.52148438 -26.6784668 67.52148438 -29.6784668 66.52148438 C-32.97293191 66.69926939 -36.24010634 66.96537004 -39.5222168 67.29296875 C-44.41176945 67.6927724 -48.03299764 67.12064457 -52.6784668 65.52148438 C-52.91584044 56.60678526 -52.47209145 48.26540455 -50.6784668 39.52148438 C-52.1634668 39.02648438 -52.1634668 39.02648438 -53.6784668 38.52148438 C-53.64366211 39.22015625 -53.60885742 39.91882812 -53.57299805 40.63867188 C-53.54592773 41.54875 -53.51885742 42.45882812 -53.4909668 43.39648438 C-53.43875977 44.75386719 -53.43875977 44.75386719 -53.38549805 46.13867188 C-53.48217773 46.925 -53.57885742 47.71132813 -53.6784668 48.52148438 C-58.24483711 51.56573125 -62.24562139 50.64931603 -67.6784668 50.52148438 C-67.6784668 54.81148437 -67.6784668 59.10148437 -67.6784668 63.52148438 C-70.15770481 63.54833533 -72.63665519 63.56824985 -75.1159668 63.58398438 C-75.82301758 63.59236328 -76.53006836 63.60074219 -77.25854492 63.609375 C-79.06540239 63.61802025 -80.87234282 63.57368449 -82.6784668 63.52148438 C-83.6784668 62.52148438 -83.6784668 62.52148438 -83.77612305 60.45507812 C-83.76452148 59.63136719 -83.75291992 58.80765625 -83.7409668 57.95898438 C-83.73194336 57.13269531 -83.72291992 56.30640625 -83.71362305 55.45507812 C-83.70202148 54.81699219 -83.69041992 54.17890625 -83.6784668 53.52148438 C-84.23832275 53.54243164 -84.79817871 53.56337891 -85.375 53.58496094 C-87.91347266 53.66814639 -90.4516588 53.72014818 -92.9909668 53.77148438 C-93.87204102 53.805 -94.75311523 53.83851562 -95.66088867 53.87304688 C-102.20723178 53.97261103 -102.20723178 53.97261103 -104.78393555 51.50585938 C-105.07913086 50.85101563 -105.37432617 50.19617187 -105.6784668 49.52148438 C-100.9284668 45.64648438 -100.9284668 45.64648438 -98.6784668 44.52148438 C-98.24860986 42.19794452 -98.24860986 42.19794452 -98.1159668 39.52148438 C-97.77465 34.61766758 -97.77465 34.61766758 -96.6784668 33.52148438 C-92.34315762 33.37754981 -88.01688948 33.47936377 -83.6784668 33.52148438 C-83.6784668 29.23148438 -83.6784668 24.94148438 -83.6784668 20.52148438 C-91.30107766 23.30056125 -97.927433 26.06325451 -104.6784668 30.52148438 C-105.3384668 30.52148438 -105.9984668 30.52148438 -106.6784668 30.52148438 C-106.9259668 31.07835938 -107.1734668 31.63523437 -107.4284668 32.20898438 C-108.6784668 34.52148438 -108.6784668 34.52148438 -110.8034668 36.70898438 C-113.05623725 40.08814006 -113.46709284 42.18316998 -113.22143555 46.19335938 C-112.11317802 50.9453125 -109.46880625 53.58251347 -105.6784668 56.52148438 C-78.2178816 73.48051562 -43.22972481 77.79269986 -11.6784668 80.52148438 C-10.62506104 80.61574707 -9.57165527 80.71000977 -8.48632812 80.80712891 C3.87088833 81.77751368 16.2454134 81.76407882 28.6340332 81.77148438 C29.80494507 81.77249146 30.97585693 81.77349854 32.18225098 81.77453613 C51.72452244 81.76320728 70.93362102 81.00902014 90.3215332 78.52148438 C91.46348145 78.37694824 92.60542969 78.23241211 93.78198242 78.08349609 C108.25984887 76.17690233 122.23336134 73.02804555 136.26635742 69.00878906 C138.3215332 68.52148438 138.3215332 68.52148438 141.3215332 68.52148438 C141.3215332 69.51148437 141.3215332 70.50148438 141.3215332 71.52148438 C133.99865105 74.33202717 126.70162042 76.64492549 119.0715332 78.45898438 C118.01160156 78.71131836 116.95166992 78.96365234 115.85961914 79.22363281 C107.14904839 81.2283469 98.38995166 82.83502796 89.5715332 84.27148438 C88.36722656 84.46991943 87.16291992 84.66835449 85.92211914 84.87280273 C67.89185081 87.69320013 49.95632036 88.84327688 31.7199707 88.85742188 C29.70390743 88.86388551 27.687845 88.87061614 25.67178345 88.87759399 C21.47167804 88.88945689 17.27165413 88.89328674 13.0715332 88.89208984 C8.84642251 88.89192818 4.62174947 88.90569638 0.39672852 88.93310547 C-117.44591644 89.68574545 -117.44591644 89.68574545 -155.0847168 56.13476562 C-158.68504443 52.49031632 -159.07399968 49.81606774 -159.2409668 44.83398438 C-159.15216398 40.03863246 -158.95548235 36.83870663 -155.8659668 33.08398438 C-118.69498446 -1.78239705 -47.60574355 -0.21000979 0 0 Z M-31.6784668 35.52148438 C-32.0084668 36.51148438 -32.3384668 37.50148437 -32.6784668 38.52148438 C-29.7198927 38.57527663 -26.76228958 38.6150553 -23.8034668 38.64648438 C-22.54083008 38.67162109 -22.54083008 38.67162109 -21.25268555 38.69726562 C-20.04418945 38.70693359 -20.04418945 38.70693359 -18.8112793 38.71679688 C-18.06765137 38.72727051 -17.32402344 38.73774414 -16.55786133 38.74853516 C-14.43356444 38.68804407 -14.43356444 38.68804407 -12.6784668 36.52148438 C-15.98841393 34.86651081 -19.6696968 35.42064102 -23.3034668 35.45898438 C-24.10526367 35.46349609 -24.90706055 35.46800781 -25.7331543 35.47265625 C-27.71495686 35.48445269 -29.69672113 35.50238832 -31.6784668 35.52148438 Z M94.3215332 35.52148438 C94.3215332 36.18148437 94.3215332 36.84148438 94.3215332 37.52148438 C99.6015332 37.52148438 104.8815332 37.52148438 110.3215332 37.52148438 C109.9915332 36.86148438 109.6615332 36.20148437 109.3215332 35.52148438 C104.3715332 35.52148438 99.4215332 35.52148438 94.3215332 35.52148438 Z M2.3215332 41.52148438 C0.2815613 42.88472181 0.2815613 42.88472181 -1.6784668 44.52148438 C-1.6784668 45.18148437 -1.6784668 45.84148438 -1.6784668 46.52148438 C-2.6684668 46.85148437 -3.6584668 47.18148437 -4.6784668 47.52148438 C-3.37439796 49.54068774 -2.04023261 51.5407341 -0.6784668 53.52148438 C-0.3484668 53.52148438 -0.0184668 53.52148438 0.3215332 53.52148438 C0.6515332 51.87148438 0.9815332 50.22148438 1.3215332 48.52148438 C13.2015332 48.19148438 25.0815332 47.86148438 37.3215332 47.52148438 C37.3215332 47.19148438 37.3215332 46.86148438 37.3215332 46.52148438 C36.53504395 46.50690186 35.74855469 46.49231934 34.93823242 46.47729492 C31.35718362 46.40259075 27.7770441 46.30600231 24.1965332 46.20898438 C22.9590332 46.18642578 21.7215332 46.16386719 20.4465332 46.140625 C19.24770508 46.10517578 18.04887695 46.06972656 16.8137207 46.03320312 C15.71398926 46.00701904 14.61425781 45.98083496 13.48120117 45.95385742 C9.90441917 45.46440595 7.45149625 44.28317753 4.3215332 42.52148438 C3.6615332 42.19148438 3.0015332 41.86148438 2.3215332 41.52148438 Z M93.3215332 46.52148438 C93.3215332 46.85148437 93.3215332 47.18148437 93.3215332 47.52148438 C98.6015332 47.52148438 103.8815332 47.52148438 109.3215332 47.52148438 C109.3215332 47.19148438 109.3215332 46.86148438 109.3215332 46.52148438 C104.0415332 46.52148438 98.7615332 46.52148438 93.3215332 46.52148438 Z M-34.6784668 48.52148438 C-35.0084668 51.49148437 -35.3384668 54.46148437 -35.6784668 57.52148438 C-32.26049805 57.86328125 -32.26049805 57.86328125 -28.8425293 58.20507812 C-26.6784668 58.52148438 -26.6784668 58.52148438 -24.6784668 59.52148438 C-24.6784668 58.86148438 -24.6784668 58.20148437 -24.6784668 57.52148438 C-23.7297168 57.72773437 -22.7809668 57.93398438 -21.8034668 58.14648438 C-20.7722168 58.27023438 -19.7409668 58.39398438 -18.6784668 58.52148438 C-18.0184668 57.86148438 -17.3584668 57.20148437 -16.6784668 56.52148438 C-18.29098575 53.35302608 -19.93550042 50.81231344 -22.6784668 48.52148438 C-26.76061441 47.81515858 -30.57694815 48.04363754 -34.6784668 48.52148438 Z M7.3215332 57.52148438 C8.3215332 59.52148438 8.3215332 59.52148438 8.3215332 59.52148438 Z M52.3215332 57.52148438 C53.3115332 59.00648437 53.3115332 59.00648437 54.3215332 60.52148438 C54.3215332 59.53148437 54.3215332 58.54148438 54.3215332 57.52148438 C53.6615332 57.52148438 53.0015332 57.52148438 52.3215332 57.52148438 Z M74.3215332 57.52148438 C74.9815332 58.18148437 75.6415332 58.84148438 76.3215332 59.52148438 C76.6515332 58.86148438 76.9815332 58.20148437 77.3215332 57.52148438 C76.3315332 57.52148438 75.3415332 57.52148438 74.3215332 57.52148438 Z M106.3215332 57.52148438 C107.3215332 59.52148438 107.3215332 59.52148438 107.3215332 59.52148438 Z " fill="#204931" transform="translate(158.678466796875,-0.521484375)"/>
<path d="M0 0 C5.21076392 0.02277263 10.42070907 0.00925266 15.63144493 -0.01379395 C42.79207522 -0.11507115 69.50297961 0.93889164 96.3215332 5.52148438 C95.9915332 6.84148438 95.6615332 8.16148438 95.3215332 9.52148438 C94.53206299 9.43584229 93.74259277 9.3502002 92.92919922 9.26196289 C89.24791896 8.86508031 85.56599172 8.47452265 81.8840332 8.08398438 C80.64331055 7.94927734 79.40258789 7.81457031 78.12426758 7.67578125 C62.27239577 6.00501841 46.50816753 5.31262557 30.5715332 5.33398438 C29.3052861 5.33489075 29.3052861 5.33489075 28.01345825 5.33581543 C-4.79274838 5.39896872 -37.28101522 8.28376641 -69.16674805 16.25195312 C-74.00536987 17.43621945 -78.71755195 18.09479429 -83.6784668 18.52148438 C-83.6784668 19.18148438 -83.6784668 19.84148438 -83.6784668 20.52148438 C-84.5240918 20.82441406 -85.3697168 21.12734375 -86.2409668 21.43945312 C-92.93847196 23.91296356 -98.7307179 26.59372567 -104.6784668 30.52148438 C-105.3384668 30.52148438 -105.9984668 30.52148438 -106.6784668 30.52148438 C-106.9259668 31.07835938 -107.1734668 31.63523437 -107.4284668 32.20898438 C-108.6784668 34.52148438 -108.6784668 34.52148438 -110.8034668 36.70898438 C-113.05623725 40.08814006 -113.46709284 42.18316998 -113.22143555 46.19335938 C-112.11317802 50.9453125 -109.46880625 53.58251347 -105.6784668 56.52148438 C-78.2178816 73.48051562 -43.22972481 77.79269986 -11.6784668 80.52148438 C-10.62506104 80.61574707 -9.57165527 80.71000977 -8.48632812 80.80712891 C3.87088833 81.77751368 16.2454134 81.76407882 28.6340332 81.77148438 C29.80494507 81.77249146 30.97585693 81.77349854 32.18225098 81.77453613 C51.72452244 81.76320728 70.93362102 81.00902014 90.3215332 78.52148438 C91.46348145 78.37694824 92.60542969 78.23241211 93.78198242 78.08349609 C108.25984887 76.17690233 122.23336134 73.02804555 136.26635742 69.00878906 C138.3215332 68.52148438 138.3215332 68.52148438 141.3215332 68.52148438 C141.3215332 69.51148437 141.3215332 70.50148438 141.3215332 71.52148438 C133.99865105 74.33202717 126.70162042 76.64492549 119.0715332 78.45898438 C118.01160156 78.71131836 116.95166992 78.96365234 115.85961914 79.22363281 C107.14904839 81.2283469 98.38995166 82.83502796 89.5715332 84.27148438 C88.36722656 84.46991943 87.16291992 84.66835449 85.92211914 84.87280273 C67.89185081 87.69320013 49.95632036 88.84327688 31.7199707 88.85742188 C29.70390743 88.86388551 27.687845 88.87061614 25.67178345 88.87759399 C21.47167804 88.88945689 17.27165413 88.89328674 13.0715332 88.89208984 C8.84642251 88.89192818 4.62174947 88.90569638 0.39672852 88.93310547 C-117.44591644 89.68574545 -117.44591644 89.68574545 -155.0847168 56.13476562 C-158.68504443 52.49031632 -159.07399968 49.81606774 -159.2409668 44.83398438 C-159.15216398 40.03863246 -158.95548235 36.83870663 -155.8659668 33.08398438 C-118.69498446 -1.78239705 -47.60574355 -0.21000979 0 0 Z " fill="#E8000B" transform="translate(158.678466796875,-0.521484375)"/>
<path d="M0 0 C13.75 0.875 13.75 0.875 16 2 C16 6.29 16 10.58 16 15 C22.27 14.67 28.54 14.34 35 14 C35.33 12.02 35.66 10.04 36 8 C37.93653986 6.06346014 41.57746655 6.83616926 44.21875 6.83203125 C45.31660828 6.82703865 45.31660828 6.82703865 46.43664551 6.82194519 C47.99356456 6.81686864 49.55049455 6.81453709 51.10742188 6.81469727 C53.46243 6.8125345 55.81695136 6.79445382 58.171875 6.77539062 C77.17831942 6.70186204 77.17831942 6.70186204 83.5625 11.1875 C86 14 86 14 86.625 17.375 C85.85760679 21.82588063 84.53282821 24.27525264 82 28 C81.34 28.33 80.68 28.66 80 29 C80.99 30.65 81.98 32.3 83 34 C81 36 81 36 78.1796875 36.1953125 C77.08914062 36.17210937 75.99859375 36.14890625 74.875 36.125 C73.77929688 36.10695312 72.68359375 36.08890625 71.5546875 36.0703125 C70.71164063 36.04710937 69.86859375 36.02390625 69 36 C69 36.66 69 37.32 69 38 C68.01 38 67.02 38 66 38 C65.360625 36.865625 64.72125 35.73125 64.0625 34.5625 C62.21257872 31.71293182 61.38480811 31.08841544 58.0078125 30.3125 C54.9921669 30.08543963 52.02342543 29.96624565 49 30 C49.04125 30.94875 49.0825 31.8975 49.125 32.875 C49 36 49 36 47 38 C44.25514407 38.14507695 41.61519457 38.18652423 38.875 38.125 C38.12089844 38.11597656 37.36679688 38.10695312 36.58984375 38.09765625 C34.72642746 38.0740687 32.86317407 38.03819719 31 38 C31.96355353 26.47835991 31.96355353 26.47835991 33 21 C32.01 20.67 31.02 20.34 30 20 C30.05220703 21.04800781 30.05220703 21.04800781 30.10546875 22.1171875 C30.13253906 23.02726562 30.15960938 23.93734375 30.1875 24.875 C30.23970703 26.23238281 30.23970703 26.23238281 30.29296875 27.6171875 C30.19628906 28.40351562 30.09960938 29.18984375 30 30 C25.43362969 33.04424687 21.43284541 32.12783166 16 32 C16 36.29 16 40.58 16 45 C13.52076199 45.02685095 11.0418116 45.04676547 8.5625 45.0625 C7.85544922 45.07087891 7.14839844 45.07925781 6.41992188 45.08789062 C4.61306441 45.09653588 2.80612397 45.05220011 1 45 C0 44 0 44 -0.09765625 41.93359375 C-0.08605469 41.10988281 -0.07445313 40.28617188 -0.0625 39.4375 C-0.05347656 38.61121094 -0.04445313 37.78492188 -0.03515625 36.93359375 C-0.02355469 36.29550781 -0.01195313 35.65742187 0 35 C-0.55985596 35.02094727 -1.11971191 35.04189453 -1.6965332 35.06347656 C-4.23500586 35.14666202 -6.773192 35.19866381 -9.3125 35.25 C-10.19357422 35.28351562 -11.07464844 35.31703125 -11.98242188 35.3515625 C-18.52876499 35.45112665 -18.52876499 35.45112665 -21.10546875 32.984375 C-21.40066406 32.32953125 -21.69585937 31.6746875 -22 31 C-17.25 27.125 -17.25 27.125 -15 26 C-14.57014306 23.67646015 -14.57014306 23.67646015 -14.4375 21 C-14.09618321 16.09618321 -14.09618321 16.09618321 -13 15 C-8.66469082 14.85606543 -4.33842269 14.95787939 0 15 C0 10.05 0 5.1 0 0 Z M52 17 C51.67 17.99 51.34 18.98 51 20 C53.95857409 20.05379226 56.91617721 20.09357093 59.875 20.125 C61.13763672 20.15013672 61.13763672 20.15013672 62.42578125 20.17578125 C63.63427734 20.18544922 63.63427734 20.18544922 64.8671875 20.1953125 C65.61081543 20.20578613 66.35444336 20.21625977 67.12060547 20.22705078 C69.24490235 20.1665597 69.24490235 20.1665597 71 18 C67.69005287 16.34502644 64.00877 16.89915665 60.375 16.9375 C59.57320312 16.94201172 58.77140625 16.94652344 57.9453125 16.95117188 C55.96350994 16.96296832 53.98174567 16.98090395 52 17 Z " fill="#214C33" transform="translate(75,18)"/>
<path d="M0 0 C6.03273801 -0.06893099 12.06410555 -0.12864717 18.09692383 -0.16479492 C20.14840326 -0.17986622 22.19985056 -0.20032682 24.2512207 -0.22631836 C27.20271748 -0.26277424 30.15378763 -0.27974306 33.10546875 -0.29296875 C34.47761787 -0.31619453 34.47761787 -0.31619453 35.87748718 -0.33988953 C40.78058287 -0.34118062 43.99298591 -0.14882358 48 3 C48.598125 3.45375 49.19625 3.9075 49.8125 4.375 C51.50621005 6.69270849 51.34279285 8.18909861 51 11 C50 13.3125 50 13.3125 49 15 C49.66 15.99 50.32 16.98 51 18 C50.92193651 22.2934921 50.70402392 24.29597608 47.625 27.375 C44.0550396 29.58497549 41.45831773 30.12455313 37.3449707 30.11352539 C36.40422195 30.11344986 35.46347321 30.11337433 34.49421692 30.11329651 C33.48163315 30.10813522 32.46904938 30.10297394 31.42578125 30.09765625 C30.38681198 30.0962413 29.34784271 30.09482635 28.27738953 30.09336853 C24.95573052 30.08776656 21.63413867 30.07521372 18.3125 30.0625 C16.06184993 30.05748525 13.81119881 30.0529223 11.56054688 30.04882812 C6.04031783 30.03864696 0.52023418 30.01907183 -5 30 C-3.35 20.1 -1.7 10.2 0 0 Z M16 9 C16 9.66 16 10.32 16 11 C21.28 11 26.56 11 32 11 C31.67 10.34 31.34 9.68 31 9 C26.05 9 21.1 9 16 9 Z M15 20 C15 20.33 15 20.66 15 21 C20.28 21 25.56 21 31 21 C31 20.67 31 20.34 31 20 C25.72 20 20.44 20 15 20 Z " fill="#224F34" transform="translate(237,26)"/>
<path d="M0 0 C-0.41138005 7.23461469 -1.31646996 14.31082406 -2.54296875 21.4453125 C-2.68295288 22.27168213 -2.82293701 23.09805176 -2.96716309 23.94946289 C-3.30920191 25.96668971 -3.65428567 27.98339984 -4 30 C-3.41784225 29.99777939 -2.83568451 29.99555878 -2.23588562 29.99327087 C3.81466052 29.97117418 9.86519522 29.95607501 15.91577148 29.94506836 C18.1748908 29.94003474 20.43400686 29.93320738 22.69311523 29.92456055 C25.93734543 29.91245255 29.18153261 29.90676201 32.42578125 29.90234375 C33.94465691 29.89460182 33.94465691 29.89460182 35.49421692 29.88670349 C36.43496567 29.88662796 37.37571442 29.88655243 38.3449707 29.88647461 C39.17325882 29.884254 40.00154694 29.88203339 40.85493469 29.87974548 C43 30 43 30 46 31 C47.99961564 31.03920815 50.00049364 31.04443347 52 31 C53.34771696 33.21976911 54.04398726 34.50147776 53.8125 37.125 C53 39 53 39 50 41 C47.73046875 40.94140625 47.73046875 40.94140625 45.1875 40.5625 C41.18322119 40.05540792 37.98051554 40.24180656 34 41 C32.66216607 40.68521554 31.32796291 40.35412344 30 40 C29.38382812 40.165 28.76765625 40.33 28.1328125 40.5 C25.81279341 41.04388726 24.33569922 40.8892832 22 40.5 C17.09712837 39.8484556 12.49948312 40.28688047 7.6015625 40.84375 C5 41 5 41 2 40 C0.60560336 39.93334624 -0.79169875 39.91461801 -2.1875 39.9375 C-3.445625 39.958125 -4.70375 39.97875 -6 40 C-6 37.03 -6 34.06 -6 31 C-7.485 31.495 -7.485 31.495 -9 32 C-8.67 34.64 -8.34 37.28 -8 40 C-17.57 40 -27.14 40 -37 40 C-37 38.68 -37 37.36 -37 36 C-37.66 36 -38.32 36 -39 36 C-38.67 34.35 -38.34 32.7 -38 31 C-35.03 31 -32.06 31 -29 31 C-29 32.65 -29 34.3 -29 36 C-28.34 36 -27.68 36 -27 36 C-26.67 34.35 -26.34 32.7 -26 31 C-24.68 30.67 -23.36 30.34 -22 30 C-21.83564453 28.7625 -21.83564453 28.7625 -21.66796875 27.5 C-20.40077113 18.26903199 -18.78122436 9.14361837 -17 0 C-14.54203147 -0.19436491 -12.08390706 -0.3807742 -9.625 -0.5625 C-8.92632812 -0.61857422 -8.22765625 -0.67464844 -7.5078125 -0.73242188 C-2.2265625 -1.11328125 -2.2265625 -1.11328125 0 0 Z M-21 31 C-20.01 32.485 -20.01 32.485 -19 34 C-19 33.01 -19 32.02 -19 31 C-19.66 31 -20.32 31 -21 31 Z M1 31 C1.66 31.66 2.32 32.32 3 33 C3.33 32.34 3.66 31.68 4 31 C3.01 31 2.02 31 1 31 Z M33 31 C34 33 34 33 34 33 Z " fill="#2A2626" transform="translate(232,26)"/>
<path d="M0 0 C0.33 0.66 0.66 1.32 1 2 C1.62648438 2 2.25296875 2 2.8984375 2 C12 2 12 2 15 2.0625 C17.92528651 2.21589288 17.92528651 2.21589288 20 1 C21.7566923 0.90927713 23.5168501 0.88245856 25.27587891 0.88647461 C26.92736435 0.88658791 26.92736435 0.88658791 28.61221313 0.88670349 C29.80494843 0.89186478 30.99768372 0.89702606 32.2265625 0.90234375 C33.44451508 0.9037587 34.66246765 0.90517365 35.91732788 0.90663147 C39.8199099 0.91224361 43.72243523 0.92479821 47.625 0.9375 C50.26562417 0.94251343 52.90624924 0.94707661 55.546875 0.95117188 C62.03126945 0.96221699 68.51563068 0.97896698 75 1 C73.68 1.33 72.36 1.66 71 2 C71 3.65 71 5.3 71 7 C71.66 7 72.32 7 73 7 C73.99 9.475 73.99 9.475 75 12 C72.03 11.67 69.06 11.34 66 11 C66 8.03 66 5.06 66 2 C65.34 2 64.68 2 64 2 C64.495 3.485 64.495 3.485 65 5 C64.125 8.125 64.125 8.125 62 11 C57.4843788 12.40846408 53.51369916 12.15957027 49 11 C48.34 11.165 47.68 11.33 47 11.5 C45 12 45 12 43.25 11.5 C40.83955968 10.9643466 39.35600738 11.17783795 36.9375 11.5625 C33 12 33 12 30 10 C29.75 6.9375 29.75 6.9375 30 4 C30.33 3.67 30.66 3.34 31 3 C30.01 3 29.02 3 28 3 C28 5.64 28 8.28 28 11 C27.03578125 10.98839844 26.0715625 10.97679688 25.078125 10.96484375 C23.81484375 10.95582031 22.5515625 10.94679688 21.25 10.9375 C19.37054688 10.92009766 19.37054688 10.92009766 17.453125 10.90234375 C14.16949054 10.871363 14.16949054 10.871363 11.734375 11.56640625 C10 12 10 12 7 11 C3.70553489 11.17778501 0.43836046 11.44388566 -2.84375 11.77148438 C-7.73330265 12.17128802 -11.35453085 11.59916019 -16 10 C-16.125 3.25 -16.125 3.25 -15 1 C-12.45058627 0.68758629 -9.99638487 0.48696579 -7.4375 0.375 C-6.72658203 0.33632813 -6.01566406 0.29765625 -5.28320312 0.2578125 C-3.52257575 0.16328217 -1.76132272 0.08054183 0 0 Z M44 2 C45 4 45 4 45 4 Z " fill="#2D2A2B" transform="translate(122,55)"/>
<path d="M0 0 C-0.57754773 10.1568738 -2.25561331 19.98873724 -4 30 C-9.94 30 -15.88 30 -22 30 C-20.63570641 19.92521654 -18.94340443 9.97614274 -17 0 C-14.54203147 -0.19436491 -12.08390706 -0.3807742 -9.625 -0.5625 C-8.92632812 -0.61857422 -8.22765625 -0.67464844 -7.5078125 -0.73242188 C-2.2265625 -1.11328125 -2.2265625 -1.11328125 0 0 Z " fill="#E6000B" transform="translate(232,26)"/>
<path d="M0 0 C0.08090971 1.62418745 0.13914995 3.24951745 0.1875 4.875 C0.23970703 6.23238281 0.23970703 6.23238281 0.29296875 7.6171875 C0.19628906 8.40351562 0.09960938 9.18984375 0 10 C-4.56637031 13.04424687 -8.56715459 12.12783166 -14 12 C-14 16.29 -14 20.58 -14 25 C-16.47923801 25.02685095 -18.9581884 25.04676547 -21.4375 25.0625 C-22.14455078 25.07087891 -22.85160156 25.07925781 -23.58007812 25.08789062 C-25.38693559 25.09653588 -27.19387603 25.05220011 -29 25 C-30 24 -30 24 -30.09765625 21.93359375 C-30.08025391 20.69802734 -30.08025391 20.69802734 -30.0625 19.4375 C-30.05347656 18.61121094 -30.04445313 17.78492187 -30.03515625 16.93359375 C-30.02355469 16.29550781 -30.01195313 15.65742187 -30 15 C-32.31 15 -34.62 15 -37 15 C-37 14.67 -37 14.34 -37 14 C-34.36 14 -31.72 14 -29 14 C-29 12.68 -29 11.36 -29 10 C-30.65 10 -32.3 10 -34 10 C-31.34031168 6.62121076 -27.82758323 5.67608631 -23.875 4.4375 C-23.20210937 4.22134033 -22.52921875 4.00518066 -21.8359375 3.7824707 C-14.43703842 1.44452531 -7.77391021 -0.33080469 0 0 Z " fill="#204B32" transform="translate(105,38)"/>
<path d="M0 0 C13.75 0.875 13.75 0.875 16 2 C16 6.29 16 10.58 16 15 C20.29 15 24.58 15 29 15 C25.34990558 16.82504721 22.41624312 17.73572794 18.4765625 18.65625 C17.208125 18.95660156 15.9396875 19.25695312 14.6328125 19.56640625 C13.29696123 19.87797411 11.96102289 20.18916886 10.625 20.5 C8.01218477 21.11114385 5.40048682 21.72664871 2.7890625 22.34375 C1.63100098 22.61380859 0.47293945 22.88386719 -0.72021484 23.16210938 C-4.00977683 23.95338122 -4.00977683 23.95338122 -7.17431641 25.10351562 C-10 26 -10 26 -14 26 C-14.02688151 24.35425434 -14.04634123 22.70838587 -14.0625 21.0625 C-14.07410156 20.14597656 -14.08570313 19.22945312 -14.09765625 18.28515625 C-14 16 -14 16 -13 15 C-8.66469082 14.85606543 -4.33842269 14.95787939 0 15 C0 10.05 0 5.1 0 0 Z " fill="#204A31" transform="translate(75,18)"/>
<path d="M0 0 C0 0.33 0 0.66 0 1 C-1.0202124 1.15557373 -2.0404248 1.31114746 -3.09155273 1.47143555 C-42.59209483 5.93339658 -42.59209483 5.93339658 -80 18 C-78.68 18.33 -77.36 18.66 -76 19 C-76 20.32 -76 21.64 -76 23 C-80.76995213 23.73383879 -85.48704661 24.15419229 -90.3125 24.3125 C-91.31925781 24.34988281 -92.32601562 24.38726562 -93.36328125 24.42578125 C-96 24 -96 24 -97.85546875 21.98046875 C-98.23316406 21.32691406 -98.61085937 20.67335938 -99 20 C-94.38531284 15.46470531 -89.12834601 14.23759523 -83.0625 12.5625 C-82.01376709 12.2639209 -80.96503418 11.9653418 -79.88452148 11.65771484 C-71.55040676 9.32683443 -63.15444496 7.3237158 -54.69360352 5.51000977 C-53.39314087 5.23048462 -53.39314087 5.23048462 -52.06640625 4.9453125 C-51.30271729 4.78562988 -50.53902832 4.62594727 -49.75219727 4.46142578 C-47.98560724 4.15351488 -47.98560724 4.15351488 -47 3 C-42.92149951 2.30266703 -38.79858655 1.89821332 -34.6875 1.4375 C-33.47537842 1.30110107 -32.26325684 1.16470215 -31.0144043 1.02416992 C-20.63757399 -0.07053616 -10.42060417 -0.32081678 0 0 Z " fill="#EC676B" transform="translate(152,29)"/>
<path d="M0 0 C0 0.99 0 1.98 0 3 C-7.32300598 5.81059032 -14.62002288 8.12263301 -22.25 9.9375 C-23.29978027 10.18838379 -24.34956055 10.43926758 -25.43115234 10.69775391 C-34.44027905 12.77678315 -43.50170404 14.39828235 -52.625 15.875 C-53.29325806 15.98431854 -53.96151611 16.09363708 -54.65002441 16.20626831 C-61.16943954 17.26272388 -67.38121254 18.11824869 -74 18 C-74 17.01 -74 16.02 -74 15 C-77.63 14.67 -81.26 14.34 -85 14 C-85 13.67 -85 13.34 -85 13 C-83.65143921 12.89510254 -83.65143921 12.89510254 -82.27563477 12.78808594 C-55.97296241 10.70463962 -30.51391951 7.77906336 -5.05517578 0.48730469 C-3 0 -3 0 0 0 Z " fill="#970006" transform="translate(300,68)"/>
<path d="M0 0 C1.46953125 0.13341797 1.46953125 0.13341797 2.96875 0.26953125 C3.9484375 0.34558594 4.928125 0.42164063 5.9375 0.5 C8.46875 1.08203125 8.46875 1.08203125 10.46875 4.08203125 C10.79875 3.09203125 11.12875 2.10203125 11.46875 1.08203125 C15.56600269 0.04035684 19.08370224 0.137936 23.28125 0.51953125 C25.02341797 0.67228516 25.02341797 0.67228516 26.80078125 0.828125 C27.68121094 0.91191406 28.56164062 0.99570312 29.46875 1.08203125 C29.46875 4.28598541 28.72539978 6.17602864 27.46875 9.08203125 C26.05331585 9.27861933 24.63630969 9.46390671 23.21875 9.64453125 C22.42984375 9.74894531 21.6409375 9.85335937 20.828125 9.9609375 C18.45305162 10.08283696 16.74367744 9.69937267 14.46875 9.08203125 C13.80875 9.24703125 13.14875 9.41203125 12.46875 9.58203125 C10.46875 10.08203125 10.46875 10.08203125 8.71875 9.58203125 C6.30830968 9.04637785 4.82475738 9.2598692 2.40625 9.64453125 C-1.53125 10.08203125 -1.53125 10.08203125 -4.53125 8.08203125 C-4.84375 5.08203125 -4.84375 5.08203125 -4.53125 2.08203125 C-2.53125 0.08203125 -2.53125 0.08203125 0 0 Z " fill="#2F2C2D" transform="translate(156.53125,56.91796875)"/>
<path d="M0 0 C6.6 0 13.2 0 20 0 C20.66 1.32 21.32 2.64 22 4 C22.33 3.01 22.66 2.02 23 1 C26.28976808 -0.09658936 27.71303767 0.20046862 31 1 C31 3.64 31 6.28 31 9 C29.58456585 9.19658808 28.16755969 9.38187546 26.75 9.5625 C25.96109375 9.66691406 25.1721875 9.77132812 24.359375 9.87890625 C22 10 22 10 19.953125 9.46484375 C17.60916694 8.90698173 16.30528002 9.39147714 14 10 C11.81640625 9.87890625 11.81640625 9.87890625 9.5625 9.5625 C6.34351818 9.14817561 3.25257059 8.89507837 0 9 C0 6.03 0 3.06 0 0 Z " fill="#312E2F" transform="translate(244,57)"/>
<path d="M0 0 C5.92651057 -0.02469854 11.85299125 -0.04285931 17.77954102 -0.05493164 C19.79614789 -0.05996382 21.8127511 -0.06679014 23.8293457 -0.07543945 C26.72608339 -0.08755373 29.62277288 -0.09323943 32.51953125 -0.09765625 C33.42274612 -0.10281754 34.325961 -0.10797882 35.25654602 -0.11329651 C36.5175135 -0.11340981 36.5175135 -0.11340981 37.80395508 -0.11352539 C38.54341873 -0.115746 39.28288239 -0.11796661 40.04475403 -0.12025452 C42 0 42 0 45 1 C46.99961564 1.03920815 49.00049364 1.04443347 51 1 C52.34771696 3.21976911 53.04398726 4.50147776 52.8125 7.125 C52 9 52 9 49 11 C45.3125 10.625 45.3125 10.625 42 10 C42 7.36 42 4.72 42 2 C39.36 2 36.72 2 34 2 C34 3.98 34 5.96 34 8 C32 5 32 5 31 2 C29.97519531 2.01160156 28.95039063 2.02320313 27.89453125 2.03515625 C26.533856 2.04454022 25.17317876 2.05363977 23.8125 2.0625 C23.13896484 2.07087891 22.46542969 2.07925781 21.77148438 2.08789062 C18.04565869 2.10606538 14.6211958 1.89299392 11 1 C11 3.97 11 6.94 11 10 C9.68 9.67 8.36 9.34 7 9 C7.66 8.67 8.32 8.34 9 8 C9 6.35 9 4.7 9 3 C8.2575 2.87625 7.515 2.7525 6.75 2.625 C4.18551458 2.0421624 2.30833488 1.21335551 0 0 Z " fill="#030303" transform="translate(233,56)"/>
<path d="M0 0 C8.4747766 -0.30300877 16.69029576 0.86089859 25.0625 2 C26.51490292 2.19324303 27.96737651 2.38595565 29.41992188 2.578125 C32.94745031 3.04597147 36.47396841 3.52098713 40 4 C39.67 5.32 39.34 6.64 39 8 C38.21052979 7.91435791 37.42105957 7.82871582 36.60766602 7.74047852 C14.84310254 5.39389384 14.84310254 5.39389384 -7 4 C-4.35261084 2.5393715 -3.10551666 2 0 2 C0 1.34 0 0.68 0 0 Z " fill="#9A0006" transform="translate(215,1)"/>
<path d="M0 0 C18.15 0 36.3 0 55 0 C53.68 0.33 52.36 0.66 51 1 C51 2.65 51 4.3 51 6 C51.66 6 52.32 6 53 6 C53.66 7.65 54.32 9.3 55 11 C52.03 10.67 49.06 10.34 46 10 C46 7.03 46 4.06 46 1 C45.34 1.33 44.68 1.66 44 2 C42.62451844 2.08308638 41.24514204 2.10736016 39.8671875 2.09765625 C39.06152344 2.09443359 38.25585938 2.09121094 37.42578125 2.08789062 C36.58402344 2.07951172 35.74226563 2.07113281 34.875 2.0625 C34.02550781 2.05798828 33.17601562 2.05347656 32.30078125 2.04882812 C30.20049091 2.03702874 28.1002367 2.01909306 26 2 C26 3.98 26 5.96 26 8 C24 5 24 5 23 3 C17.13162837 1.78743198 10.96802174 1.88948108 5 2 C4.67 2.66 4.34 3.32 4 4 C3.34 4 2.68 4 2 4 C2 3.34 2 2.68 2 2 C1.34 2 0.68 2 0 2 C0 1.34 0 0.68 0 0 Z M24 1 C25 3 25 3 25 3 Z " fill="#061006" transform="translate(142,56)"/>
<path d="M0 0 C4.39656173 -0.02465504 8.7930872 -0.04283842 13.18969727 -0.05493164 C14.68644918 -0.05997121 16.18319616 -0.06680287 17.67993164 -0.07543945 C19.82699807 -0.08752159 21.97399962 -0.09323191 24.12109375 -0.09765625 C26.06133423 -0.10551147 26.06133423 -0.10551147 28.04077148 -0.11352539 C31 0 31 0 32 1 C33.51469448 1.23192865 35.03754562 1.41215238 36.5625 1.5625 C37.38878906 1.64628906 38.21507812 1.73007812 39.06640625 1.81640625 C39.70449219 1.87699219 40.34257812 1.93757813 41 2 C41 2.33 41 2.66 41 3 C39.73027344 3.04898437 38.46054688 3.09796875 37.15234375 3.1484375 C27.75984353 3.54509727 18.55784444 4.14546786 9.26171875 5.59765625 C5.81030685 6.02339927 2.47404018 6.06604639 -1 6 C-0.67 4.02 -0.34 2.04 0 0 Z " fill="#255539" transform="translate(111,26)"/>
<path d="M0 0 C0 0.99 0 1.98 0 3 C-6.98960938 5.86958734 -14.12268341 7.91073675 -21.4375 9.75 C-22.31374023 9.97260498 -23.18998047 10.19520996 -24.09277344 10.42456055 C-25.34429199 10.7326062 -25.34429199 10.7326062 -26.62109375 11.046875 C-27.3680249 11.23088867 -28.11495605 11.41490234 -28.88452148 11.60449219 C-31 12 -31 12 -35 12 C-35.33 10.68 -35.66 9.36 -36 8 C-35.24904053 7.82871582 -34.49808105 7.65743164 -33.72436523 7.48095703 C-30.2949605 6.69759181 -26.86622802 5.91132163 -23.4375 5.125 C-22.25607422 4.85558594 -21.07464844 4.58617188 -19.85742188 4.30859375 C-12.81385538 2.70636379 -12.81385538 2.70636379 -5.84765625 0.8046875 C-3 0 -3 0 0 0 Z " fill="#AE0006" transform="translate(300,68)"/>
<path d="M0 0 C0 0.33 0 0.66 0 1 C-4.44649356 1.71803882 -8.89391852 2.42991172 -13.34228516 3.13623047 C-14.85361983 3.37707418 -16.36469315 3.6195642 -17.87548828 3.86376953 C-20.05433638 4.21565996 -22.23407365 4.56150612 -24.4140625 4.90625 C-25.08305573 5.0156189 -25.75204895 5.12498779 -26.4413147 5.2376709 C-31.5184237 6.03153073 -36.07432565 6.64189145 -41 5 C-43.06200523 5.22655529 -43.06200523 5.22655529 -45.2734375 5.77734375 C-46.0984375 5.96103516 -46.9234375 6.14472656 -47.7734375 6.33398438 C-49.06121094 6.63272461 -49.06121094 6.63272461 -50.375 6.9375 C-60.64761579 9.29553226 -60.64761579 9.29553226 -65 9 C-61.56256596 7.03938947 -58.16733494 6.26199437 -54.3125 5.4375 C-50.33976595 4.87800521 -50.33976595 4.87800521 -47 3 C-42.92149951 2.30266703 -38.79858655 1.89821332 -34.6875 1.4375 C-33.47537842 1.30110107 -32.26325684 1.16470215 -31.0144043 1.02416992 C-20.63757399 -0.07053616 -10.42060417 -0.32081678 0 0 Z " fill="#C8A7A3" transform="translate(152,29)"/>
<path d="M0 0 C0.33 0.66 0.66 1.32 1 2 C3.02463255 2.65213292 3.02463255 2.65213292 5 3 C4.01 3.33 3.02 3.66 2 4 C1.67 5.65 1.34 7.3 1 9 C0.67 9 0.34 9 0 9 C0 7.02 0 5.04 0 3 C-0.99 3 -1.98 3 -3 3 C-3.33 4.32 -3.66 5.64 -4 7 C-4 6.34 -4 5.68 -4 5 C-4.99 5.495 -4.99 5.495 -6 6 C-6 7.65 -6 9.3 -6 11 C-9.93670488 12.31223496 -12.12488144 11.24296256 -16 10 C-16.125 3.25 -16.125 3.25 -15 1 C-12.45058627 0.68758629 -9.99638487 0.48696579 -7.4375 0.375 C-6.72658203 0.33632813 -6.01566406 0.29765625 -5.28320312 0.2578125 C-3.52257575 0.16328217 -1.76132272 0.08054183 0 0 Z " fill="#2D2A2B" transform="translate(122,55)"/>
<path d="M0 0 C2.5625 0.1875 2.5625 0.1875 4.5625 2.1875 C4.6875 4.8125 4.6875 4.8125 4.5625 7.1875 C3.5725 7.5175 2.5825 7.8475 1.5625 8.1875 C1.5625 8.8475 1.5625 9.5075 1.5625 10.1875 C0.716875 10.0225 -0.12875 9.8575 -1 9.6875 C-4.52888856 9.17420712 -7.87682689 9.11628654 -11.4375 9.1875 C-11.4375 6.5475 -11.4375 3.9075 -11.4375 1.1875 C-10.138125 1.208125 -8.83875 1.22875 -7.5 1.25 C-6.14584367 1.27149454 -4.78993917 1.25898199 -3.4375 1.1875 C-2.4375 0.1875 -2.4375 0.1875 0 0 Z " fill="#363334" transform="translate(238.4375,56.8125)"/>
<path d="M0 0 C-0.86625 0.61875 -0.86625 0.61875 -1.75 1.25 C-4.02516599 3.01957355 -5.99995399 4.92852378 -8 7 C-6.02 7 -4.04 7 -2 7 C-2 7.66 -2 8.32 -2 9 C-4.79192205 9.05380578 -7.5828141 9.09357669 -10.375 9.125 C-11.1690625 9.14175781 -11.963125 9.15851562 -12.78125 9.17578125 C-14.85492015 9.19335473 -16.92883241 9.10335168 -19 9 C-19.66 8.34 -20.32 7.68 -21 7 C-19.08588443 6.01585567 -17.1686033 5.03786651 -15.25 4.0625 C-14.18265625 3.51722656 -13.1153125 2.97195312 -12.015625 2.41015625 C-7.78513368 0.43190836 -4.65140418 -0.12920567 0 0 Z " fill="#FD1118" transform="translate(77,42)"/>
<path d="M0 0 C-3.3 1.32 -6.6 2.64 -10 4 C-8.68 4.33 -7.36 4.66 -6 5 C-6 6.32 -6 7.64 -6 9 C-10.76995213 9.73383879 -15.48704661 10.15419229 -20.3125 10.3125 C-21.31925781 10.34988281 -22.32601562 10.38726562 -23.36328125 10.42578125 C-26 10 -26 10 -27.85546875 7.98046875 C-28.23316406 7.32691406 -28.61085937 6.67335938 -29 6 C-24.55397698 1.55397698 -19.98701148 0.88352014 -14 0 C-16.15266842 2.15266842 -17.84773744 2.93474462 -20.625 4.125 C-21.44226562 4.47820313 -22.25953125 4.83140625 -23.1015625 5.1953125 C-23.72804688 5.46085937 -24.35453125 5.72640625 -25 6 C-22.88074396 8.11925604 -18.3803907 7.41831017 -15.4375 7.5625 C-14.63119141 7.60568359 -13.82488281 7.64886719 -12.99414062 7.69335938 C-10.99631195 7.79975262 -8.9981793 7.90040888 -7 8 C-7 7.34 -7 6.68 -7 6 C-8.98 6 -10.96 6 -13 6 C-11.9280096 2.5458087 -10.90283569 1.94781917 -7.625 0.1875 C-4 -1 -4 -1 0 0 Z " fill="#DED0CD" transform="translate(82,43)"/>
<path d="M0 0 C0.94875 0.04125 1.8975 0.0825 2.875 0.125 C4.22271696 2.34476911 4.91898726 3.62647776 4.6875 6.25 C3.875 8.125 3.875 8.125 0.875 10.125 C-1.8125 9.75 -1.8125 9.75 -4.125 9.125 C-4.75 5.75 -4.75 5.75 -5.125 2.125 C-3.125 0.125 -3.125 0.125 0 0 Z " fill="#322F30" transform="translate(281.125,56.875)"/>
<path d="M0 0 C7.16562789 -0.28100502 13.94546999 0.79556805 21 2 C20.67 3.32 20.34 4.64 20 6 C17.04111327 5.69215623 14.08296833 5.37894426 11.125 5.0625 C10.28324219 4.97548828 9.44148437 4.88847656 8.57421875 4.79882812 C7.76855469 4.71181641 6.96289062 4.62480469 6.1328125 4.53515625 C5.38918457 4.456604 4.64555664 4.37805176 3.87939453 4.29711914 C2 4 2 4 0 3 C0 2.01 0 1.02 0 0 Z " fill="#B50007" transform="translate(234,3)"/>
<path d="M0 0 C0.33 1.65 0.66 3.3 1 5 C-3.62 5.33 -8.24 5.66 -13 6 C-13 5.01 -13 4.02 -13 3 C-16.63 2.67 -20.26 2.34 -24 2 C-24 1.67 -24 1.34 -24 1 C-15.98866917 0.40891367 -8.03770278 -0.14101233 0 0 Z " fill="#950007" transform="translate(239,80)"/>
<path d="M0 0 C0.5775 0.185625 1.155 0.37125 1.75 0.5625 C4.30393357 1.2238169 4.30393357 1.2238169 8 0 C7.34 2.64 6.68 5.28 6 8 C-0.0546875 8.9765625 -0.0546875 8.9765625 -2 9 C-2.66 8.34 -3.32 7.68 -4 7 C-3.625 4.375 -3.625 4.375 -3 2 C-2.34 2 -1.68 2 -1 2 C-0.67 1.34 -0.34 0.68 0 0 Z " fill="#373335" transform="translate(119,58)"/>
<path d="M0 0 C0.66 0.33 1.32 0.66 2 1 C2 1.99 2 2.98 2 4 C-2.21751282 4.04946113 -6.43487168 4.08574827 -10.65258789 4.10986328 C-12.08718812 4.119917 -13.52176789 4.13356194 -14.95629883 4.15087891 C-17.01909438 4.17515549 -19.08161885 4.18648919 -21.14453125 4.1953125 C-22.38565674 4.20578613 -23.62678223 4.21625977 -24.90551758 4.22705078 C-28 4 -28 4 -31 2 C-20.77 2 -10.54 2 0 2 C0 1.34 0 0.68 0 0 Z " fill="#255539" transform="translate(207,31)"/>
<path d="M0 0 C4.21751282 -0.04946113 8.43487168 -0.08574827 12.65258789 -0.10986328 C14.08718812 -0.119917 15.52176789 -0.13356194 16.95629883 -0.15087891 C19.01909438 -0.17515549 21.08161885 -0.18648919 23.14453125 -0.1953125 C24.38565674 -0.20578613 25.62678223 -0.21625977 26.90551758 -0.22705078 C30 0 30 0 33 2 C17.16 2.495 17.16 2.495 1 3 C0.67 2.01 0.34 1.02 0 0 Z " fill="#255639" transform="translate(160,48)"/>
<path d="M0 0 C1.98 0 3.96 0 6 0 C6 3.20395416 5.25664978 5.09399739 4 8 C2.35 7.67 0.7 7.34 -1 7 C-0.67 4.69 -0.34 2.38 0 0 Z " fill="#252223" transform="translate(180,58)"/>
<path d="M0 0 C2.97 0.495 2.97 0.495 6 1 C6 3.66666667 6 6.33333333 6 9 C4.35 9 2.7 9 1 9 C1 7.68 1 6.36 1 5 C0.34 5 -0.32 5 -1 5 C-0.67 3.35 -0.34 1.7 0 0 Z " fill="#393738" transform="translate(194,57)"/>
<path d="M0 0 C-5.445 2.475 -5.445 2.475 -11 5 C-9.02 5.66 -7.04 6.32 -5 7 C-8 9 -8 9 -10.5625 8.8125 C-13 8 -13 8 -15 5 C-10.62003076 1.01820978 -5.95180701 -1.98393567 0 0 Z " fill="#AB9798" transform="translate(68,44)"/>
<path d="M0 0 C0.99 0.33 1.98 0.66 3 1 C2.67 3.64 2.34 6.28 2 9 C0.35 9 -1.3 9 -3 9 C-3 8.34 -3 7.68 -3 7 C-3.99 7 -4.98 7 -6 7 C-6.33 5.68 -6.66 4.36 -7 3 C-6.01 3.33 -5.02 3.66 -4 4 C-3.01 3.67 -2.02 3.34 -1 3 C-0.67 2.01 -0.34 1.02 0 0 Z " fill="#3B3739" transform="translate(141,57)"/>
<path d="M0 0 C0.33 0.66 0.66 1.32 1 2 C3.02463255 2.65213292 3.02463255 2.65213292 5 3 C4.01 3.33 3.02 3.66 2 4 C1.67 5.65 1.34 7.3 1 9 C0.67 9 0.34 9 0 9 C0 7.02 0 5.04 0 3 C-4.95 3 -9.9 3 -15 3 C-15 2.34 -15 1.68 -15 1 C-10.05 0.67 -5.1 0.34 0 0 Z " fill="#060606" transform="translate(122,55)"/>
<path d="M0 0 C-0.66 1.32 -1.32 2.64 -2 4 C-2.99 3.67 -3.98 3.34 -5 3 C-5.66 4.65 -6.32 6.3 -7 8 C-7.66 7.67 -8.32 7.34 -9 7 C-9 4.69 -9 2.38 -9 0 C-5.62182575 -0.84454356 -3.32534757 -1.10844919 0 0 Z " fill="#292828" transform="translate(265,58)"/>
<path d="M0 0 C-1.98 0.99 -1.98 0.99 -4 2 C-2.02 2 -0.04 2 2 2 C-0.80024036 4.80024036 -3.61357497 4.49159245 -7.375 4.6875 C-8.38433594 4.75807617 -8.38433594 4.75807617 -9.4140625 4.83007812 C-12.79504856 5.0330704 -15.77190343 5.1008637 -19 4 C-16.77332235 3.32506659 -14.54354023 2.66036956 -12.3125 2 C-10.45044922 1.443125 -10.45044922 1.443125 -8.55078125 0.875 C-5.4989981 0.12296543 -3.11101638 -0.19034899 0 0 Z " fill="#C5908C" transform="translate(87,38)"/>
<path d="M0 0 C0.66 1.32 1.32 2.64 2 4 C1.67 4.33 1.34 4.66 1 5 C-1.35694954 4.90968426 -3.71153582 4.75311872 -6.0625 4.5625 C-7.35285156 4.46066406 -8.64320313 4.35882813 -9.97265625 4.25390625 C-11.47119141 4.12822266 -11.47119141 4.12822266 -13 4 C-13 3.67 -13 3.34 -13 3 C-8.71 2.01 -4.42 1.02 0 0 Z " fill="#CB0009" transform="translate(263,76)"/>
<path d="M0 0 C-0.33 1.32 -0.66 2.64 -1 4 C-5.29 3.67 -9.58 3.34 -14 3 C-14 2.67 -14 2.34 -14 2 C-12.35 2 -10.7 2 -9 2 C-9 1.34 -9 0.68 -9 0 C-5.93109813 -1.53445094 -3.29905734 -0.54984289 0 0 Z " fill="#DD000B" transform="translate(248,80)"/>
<path d="M0 0 C1.134375 0.020625 2.26875 0.04125 3.4375 0.0625 C3.4375 2.0425 3.4375 4.0225 3.4375 6.0625 C2.7775 5.4025 2.1175 4.7425 1.4375 4.0625 C0.4475 4.3925 -0.5425 4.7225 -1.5625 5.0625 C-2.8825 5.0625 -4.2025 5.0625 -5.5625 5.0625 C-4.43693182 0.07784091 -4.43693182 0.07784091 0 0 Z " fill="#1A1919" transform="translate(137.5625,56.9375)"/>
<path d="M0 0 C1.4540625 0.0309375 1.4540625 0.0309375 2.9375 0.0625 C2.9375 0.7225 2.9375 1.3825 2.9375 2.0625 C-0.12320934 2.73757066 -3.1863209 3.40104922 -6.25 4.0625 C-7.54647461 4.34867188 -7.54647461 4.34867188 -8.86914062 4.640625 C-9.71025391 4.82109375 -10.55136719 5.0015625 -11.41796875 5.1875 C-12.18778076 5.35507812 -12.95759277 5.52265625 -13.75073242 5.6953125 C-16.22310247 6.08800915 -18.56325809 6.12435285 -21.0625 6.0625 C-17.62506596 4.10188947 -14.22983494 3.32449437 -10.375 2.5 C-6.70023188 1.71108982 -3.54192109 0.0722841 0 0 Z " fill="#B3B7AE" transform="translate(108.0625,31.9375)"/>
<path d="M0 0 C0.66 0.33 1.32 0.66 2 1 C2 1.33 2 1.66 2 2 C3.65 1.67 5.3 1.34 7 1 C6.6875 2.875 6.6875 2.875 6 5 C3 7 3 7 0.3125 6.625 C-0.450625 6.41875 -1.21375 6.2125 -2 6 C-1.34 4.02 -0.68 2.04 0 0 Z " fill="#212020" transform="translate(279,60)"/>
<path d="M0 0 C3.625 0.375 3.625 0.375 7 1 C6.01 2.485 6.01 2.485 5 4 C3.68 4 2.36 4 1 4 C1 4.66 1 5.32 1 6 C0.34 6 -0.32 6 -1 6 C-1.33 6.66 -1.66 7.32 -2 8 C-2.125 5.125 -2.125 5.125 -2 2 C-1.34 1.34 -0.68 0.68 0 0 Z " fill="#252223" transform="translate(154,57)"/>
<path d="M0 0 C3.96 0.33 7.92 0.66 12 1 C11.67 2.32 11.34 3.64 11 5 C8.03 4.67 5.06 4.34 2 4 C2.66 3.34 3.32 2.68 4 2 C2.68 1.34 1.36 0.68 0 0 Z " fill="#8E0003" transform="translate(243,4)"/>
<path d="M0 0 C2.64 0 5.28 0 8 0 C8 1.32 8 2.64 8 4 C5.03 4 2.06 4 -1 4 C-0.67 2.68 -0.34 1.36 0 0 Z " fill="#830005" transform="translate(226,2)"/>
<path d="M0 0 C1.15941038 3.47823115 0.70820884 5.45895578 0 9 C-0.99 8.67 -1.98 8.34 -3 8 C-3.12375 7.195625 -3.2475 6.39125 -3.375 5.5625 C-3.684375 4.2940625 -3.684375 4.2940625 -4 3 C-4.66 2.67 -5.32 2.34 -6 2 C-4.02 1.34 -2.04 0.68 0 0 Z " fill="#393637" transform="translate(179,57)"/>
<path d="M0 0 C0.99 0.33 1.98 0.66 3 1 C3.144375 1.78375 3.28875 2.5675 3.4375 3.375 C3.87798925 5.96421018 3.87798925 5.96421018 5 8 C3.35 8.33 1.7 8.66 0 9 C0 6.03 0 3.06 0 0 Z " fill="#3B363A" transform="translate(189,57)"/>
<path d="M0 0 C0.99 0.495 0.99 0.495 2 1 C2.33 1.99 2.66 2.98 3 4 C3.99 4 4.98 4 6 4 C5.67 5.32 5.34 6.64 5 8 C3.35 8 1.7 8 0 8 C0 5.36 0 2.72 0 0 Z " fill="#3B3839" transform="translate(227,58)"/>
<path d="M0 0 C0.66 1.32 1.32 2.64 2 4 C0.35 4.33 -1.3 4.66 -3 5 C-3 5.66 -3 6.32 -3 7 C-3.99 7.33 -4.98 7.66 -6 8 C-5.67 5.69 -5.34 3.38 -5 1 C-3.02 1.495 -3.02 1.495 -1 2 C-0.67 1.34 -0.34 0.68 0 0 Z " fill="#3B3839" transform="translate(264,59)"/>
<path d="M0 0 C1.32 0 2.64 0 4 0 C4 0.66 4 1.32 4 2 C5.98 2 7.96 2 10 2 C10 2.33 10 2.66 10 3 C5.545 3.495 5.545 3.495 1 4 C0.67 2.68 0.34 1.36 0 0 Z " fill="#7C0006" transform="translate(264,76)"/>
<path d="M0 0 C0 0.66 0 1.32 0 2 C0.99 2.33 1.98 2.66 3 3 C1.02 3.33 -0.96 3.66 -3 4 C-3 3.34 -3 2.68 -3 2 C-4.32 1.67 -5.64 1.34 -7 1 C-4 0 -4 0 0 0 Z " fill="#6F0004" transform="translate(286,72)"/>
<path d="M0 0 C1.32 0.66 2.64 1.32 4 2 C4 2.99 4 3.98 4 5 C1 6 1 6 -2 5 C-1.34 3.35 -0.68 1.7 0 0 Z " fill="#393637" transform="translate(166,61)"/>
<path d="M0 0 C0.99 0 1.98 0 3 0 C2.34 2.64 1.68 5.28 1 8 C0.34 8 -0.32 8 -1 8 C-1.04241723 5.66705225 -1.04092937 3.33297433 -1 1 C-0.67 0.67 -0.34 0.34 0 0 Z " fill="#3A3738" transform="translate(124,58)"/>
<path d="M0 0 C0.99 0 1.98 0 3 0 C2.67 2.64 2.34 5.28 2 8 C1.34 7.67 0.68 7.34 0 7 C0 4.69 0 2.38 0 0 Z " fill="#201E1F" transform="translate(256,58)"/>
<path d="M0 0 C-1.4562545 0.67119549 -2.91507867 1.33681807 -4.375 2 C-5.59316406 2.556875 -5.59316406 2.556875 -6.8359375 3.125 C-9 4 -9 4 -11 4 C-10.67 3.01 -10.34 2.02 -10 1 C-3.84210526 -1.28070175 -3.84210526 -1.28070175 0 0 Z " fill="#D3B8B7" transform="translate(68,44)"/>
<path d="M0 0 C0.99 0 1.98 0 3 0 C3 2.64 3 5.28 3 8 C2.34 7.67 1.68 7.34 1 7 C1.33 6.34 1.66 5.68 2 5 C1.34 5 0.68 5 0 5 C0 3.35 0 1.7 0 0 Z " fill="#393637" transform="translate(272,58)"/>
<path d="M0 0 C-2.55991624 2.01136276 -5.04590299 3.62845496 -8 5 C-8.33 3.68 -8.66 2.36 -9 1 C-5.92677456 0.08941469 -3.19902639 -0.08886184 0 0 Z " fill="#FD2226" transform="translate(77,42)"/>
<path d="M0 0 C0.66 0 1.32 0 2 0 C2 0.99 2 1.98 2 3 C1.34 3 0.68 3 0 3 C0 3.99 0 4.98 0 6 C0.66 6.33 1.32 6.66 2 7 C0.35 6.67 -1.3 6.34 -3 6 C-1.125 1.125 -1.125 1.125 0 0 Z " fill="#181717" transform="translate(238,60)"/>
<path d="M0 0 C1.9375 0.5625 1.9375 0.5625 4 2 C4.75 5.625 4.75 5.625 5 9 C4.87625 8.071875 4.87625 8.071875 4.75 7.125 C4.18741541 4.81562433 4.18741541 4.81562433 1.9375 3.75 C1.298125 3.5025 0.65875 3.255 0 3 C0 2.01 0 1.02 0 0 Z " fill="#112E20" transform="translate(283,40)"/>
<path d="M0 0 C0.33 0.66 0.66 1.32 1 2 C-0.32 3.32 -1.64 4.64 -3 6 C-3.33 4.35 -3.66 2.7 -4 1 C-2.68 0.67 -1.36 0.34 0 0 Z " fill="#2B292A" transform="translate(165,60)"/>
<path d="M0 0 C1.65 0.33 3.3 0.66 5 1 C3.6875 2.5 3.6875 2.5 2 4 C1.01 4 0.02 4 -1 4 C-0.67 2.68 -0.34 1.36 0 0 Z " fill="#3A3738" transform="translate(161,58)"/>
<path d="M0 0 C1.3921875 0.0928125 1.3921875 0.0928125 2.8125 0.1875 C2.8125 0.8475 2.8125 1.5075 2.8125 2.1875 C-1.6425 2.6825 -1.6425 2.6825 -6.1875 3.1875 C-3.1875 0.1875 -3.1875 0.1875 0 0 Z " fill="#B8ACAD" transform="translate(108.1875,31.8125)"/>
</svg>
